<svg xmlns="http://www.w3.org/2000/svg" version="1.1" xmlns:xlink="http://www.w3.org/1999/xlink" width="1000" height="1000"><style>
    #light-icon {
      display: inline;
    }
    #dark-icon {
      display: none;
    }

    @media (prefers-color-scheme: dark) {
      #light-icon {
        display: none;
      }
      #dark-icon {
        display: inline;
      }
    }
  </style><g id="light-icon"><svg xmlns="http://www.w3.org/2000/svg" version="1.1" xmlns:xlink="http://www.w3.org/1999/xlink" width="1000" height="1000"><g><g transform="matrix(2.740476842970677,0,0,2.740476842970677,0,213.85311044121676)"><svg xmlns="http://www.w3.org/2000/svg" version="1.1" xmlns:xlink="http://www.w3.org/1999/xlink" width="364.9" height="208.83"><svg id="Layer_2" data-name="Layer 2" xmlns="http://www.w3.org/2000/svg" viewBox="0 0 364.9 208.83">
  <defs>
    <style>
      .cls-1 {
        fill: #231f20;
        stroke: #fff;
        stroke-miterlimit: 10;
      }
    </style>
  </defs>
  <g id="Layer_1-2" data-name="Layer 1">
    <path class="cls-1" d="M357.23,122.68c-4.78-6.97-10.39-12.48-16.83-16.53-1.09-.69-2.17-1.34-3.23-1.95-5.24-3.04-5.81-10.3-1.12-14.13.05-.04.09-.08.14-.11,4.67-3.84,8.67-8.71,12-14.63,3.32-5.91,4.98-12.8,4.98-20.69,0-6.64-1.14-13.12-3.43-19.44-2.29-6.32-6.13-12.13-11.53-17.42-5.4-5.29-12.88-9.49-22.43-12.6-9.56-3.11-21.71-4.67-36.46-4.67h-113.32c-2.13,0-4.09,1.16-5.11,3.03l-42.83,78.39c-2.2,4.02-7.96,4.04-10.19.04L64.2,3.49c-1.03-1.84-2.97-2.99-5.08-2.99H15.44c-3.11,0-5.67,2.44-5.81,5.55L.51,202.24c-.15,3.32,2.49,6.09,5.81,6.09h41.06c3.14,0,5.71-2.49,5.81-5.62l3.19-96.04c.2-5.86,7.96-7.79,10.87-2.69l28.78,50.47c1.04,1.82,2.96,2.94,5.05,2.94h23.39c2.18,0,4.18-1.22,5.18-3.16l24.86-48.45c2.73-5.32,10.74-3.56,10.99,2.42l3.87,94.57c.13,3.12,2.69,5.58,5.81,5.58h104.15c27.83,0,48.97-4.78,63.41-14.35,14.44-9.57,21.66-24.65,21.66-45.24,0-10.4-2.39-19.08-7.17-26.06ZM248.53,47.95c0-4.73,3.84-8.57,8.57-8.57h15.43c6.02,0,11.69,1.56,16.98,4.67,5.3,3.12,7.95,9.14,7.95,18.07,0,7.9-2.55,13.45-7.63,16.67-5.09,3.22-10.86,4.83-17.29,4.83h-15.43c-4.73,0-8.57-3.84-8.57-8.57v-27.12ZM303.32,160.97c-3.45,3.56-7.64,5.86-12.56,6.91-4.92,1.05-9.58,1.57-13.97,1.57h-19.69c-4.73,0-8.57-3.84-8.57-8.57v-32.48c0-4.73,3.84-8.57,8.57-8.57h19.69c4.4,0,9.05.58,13.97,1.73,4.92,1.15,9.11,3.45,12.56,6.91,3.45,3.45,5.18,8.74,5.18,15.86,0,7.53-1.73,13.08-5.18,16.64Z"></path>
  </g>
</svg></svg></g></g></svg></g><g id="dark-icon"><svg xmlns="http://www.w3.org/2000/svg" version="1.1" xmlns:xlink="http://www.w3.org/1999/xlink" width="1000" height="1000"><g clip-path="url(#SvgjsClipPath1155)"><rect width="1000" height="1000" fill="#ffffff"></rect><g transform="matrix(2.4664291586736096,0,0,2.4664291586736096,49.99999999999994,242.46779939709506)"><svg xmlns="http://www.w3.org/2000/svg" version="1.1" xmlns:xlink="http://www.w3.org/1999/xlink" width="364.9" height="208.83"><svg id="Layer_2" data-name="Layer 2" xmlns="http://www.w3.org/2000/svg" viewBox="0 0 364.9 208.83">
  <defs>
    <style>
      .cls-1 {
        fill: #231f20;
        stroke: #fff;
        stroke-miterlimit: 10;
      }
    </style>
  <clipPath id="SvgjsClipPath1155"><rect width="1000" height="1000" x="0" y="0" rx="350" ry="350"></rect></clipPath></defs>
  <g id="Layer_1-2" data-name="Layer 1">
    <path class="cls-1" d="M357.23,122.68c-4.78-6.97-10.39-12.48-16.83-16.53-1.09-.69-2.17-1.34-3.23-1.95-5.24-3.04-5.81-10.3-1.12-14.13.05-.04.09-.08.14-.11,4.67-3.84,8.67-8.71,12-14.63,3.32-5.91,4.98-12.8,4.98-20.69,0-6.64-1.14-13.12-3.43-19.44-2.29-6.32-6.13-12.13-11.53-17.42-5.4-5.29-12.88-9.49-22.43-12.6-9.56-3.11-21.71-4.67-36.46-4.67h-113.32c-2.13,0-4.09,1.16-5.11,3.03l-42.83,78.39c-2.2,4.02-7.96,4.04-10.19.04L64.2,3.49c-1.03-1.84-2.97-2.99-5.08-2.99H15.44c-3.11,0-5.67,2.44-5.81,5.55L.51,202.24c-.15,3.32,2.49,6.09,5.81,6.09h41.06c3.14,0,5.71-2.49,5.81-5.62l3.19-96.04c.2-5.86,7.96-7.79,10.87-2.69l28.78,50.47c1.04,1.82,2.96,2.94,5.05,2.94h23.39c2.18,0,4.18-1.22,5.18-3.16l24.86-48.45c2.73-5.32,10.74-3.56,10.99,2.42l3.87,94.57c.13,3.12,2.69,5.58,5.81,5.58h104.15c27.83,0,48.97-4.78,63.41-14.35,14.44-9.57,21.66-24.65,21.66-45.24,0-10.4-2.39-19.08-7.17-26.06ZM248.53,47.95c0-4.73,3.84-8.57,8.57-8.57h15.43c6.02,0,11.69,1.56,16.98,4.67,5.3,3.12,7.95,9.14,7.95,18.07,0,7.9-2.55,13.45-7.63,16.67-5.09,3.22-10.86,4.83-17.29,4.83h-15.43c-4.73,0-8.57-3.84-8.57-8.57v-27.12ZM303.32,160.97c-3.45,3.56-7.64,5.86-12.56,6.91-4.92,1.05-9.58,1.57-13.97,1.57h-19.69c-4.73,0-8.57-3.84-8.57-8.57v-32.48c0-4.73,3.84-8.57,8.57-8.57h19.69c4.4,0,9.05.58,13.97,1.73,4.92,1.15,9.11,3.45,12.56,6.91,3.45,3.45,5.18,8.74,5.18,15.86,0,7.53-1.73,13.08-5.18,16.64Z"></path>
  </g>
</svg></svg></g></g></svg></g></svg>